<?xml version="1.0" encoding="UTF-8"?>
<svg version="1.1" xmlns="http://www.w3.org/2000/svg" width="58" height="78">
<path d="M0 0 C4.68662538 4.02219241 6.69691509 8.69870591 7.25390625 14.765625 C7.51178454 21.38727397 7.09998096 26.63296954 3 32 C-2.37635073 37.70067815 -6.38408169 39.13259991 -14.1875 39.375 C-20.59458369 39.31740824 -25.03365411 38.09750352 -30 34 C-35.47154885 27.43414138 -35.63516199 20.24555741 -35 12 C-34.11027548 7.78256567 -32.72227053 4.72227053 -29.625 1.625 C-20.80797912 -3.83315578 -9.2380634 -5.28171933 0 0 Z " fill="#E93C54" transform="translate(41,16)"/>
<path d="M0 0 C0 0.66 0 1.32 0 2 C-0.99 2.495 -0.99 2.495 -2 3 C-3.83369986 5.94402102 -4.28190436 8.32951344 -4.4140625 11.765625 C-4.45273438 12.65507812 -4.49140625 13.54453125 -4.53125 14.4609375 C-4.5621875 15.38132812 -4.593125 16.30171875 -4.625 17.25 C-4.66367188 18.18585937 -4.70234375 19.12171875 -4.7421875 20.0859375 C-4.83624844 22.39043054 -4.92189399 24.69492013 -5 27 C-4.34 27.33 -3.68 27.66 -3 28 C-2.5875 28.66 -2.175 29.32 -1.75 30 C0.60544142 32.69193305 2.52621156 32.69121881 6 33 C6 33.99 6 34.98 6 36 C10.95 35.67 15.9 35.34 21 35 C21 34.67 21 34.34 21 34 C22.65 34 24.3 34 26 34 C22.99668056 37.45381735 20.56019999 37.85379652 16.08203125 38.2734375 C8.50594648 38.50877586 2.97026694 37.92579259 -3 33 C-8.46102446 26.44677064 -8.65649184 19.23494149 -8 11 C-6.97237185 6.66978761 -5.29314203 0 0 0 Z " fill="#E57784" transform="translate(14,17)"/>
<path d="M0 0 C0.99 0 1.98 0 3 0 C3 1.32 3 2.64 3 4 C4.65 3.67 6.3 3.34 8 3 C10.67927341 7.01891012 10.15601248 9.24161923 10 14 C9.01 14 8.02 14 7 14 C6.67 11.69 6.34 9.38 6 7 C5.34 7 4.68 7 4 7 C3.67 9.31 3.34 11.62 3 14 C2.01 14 1.02 14 0 14 C0 9.38 0 4.76 0 0 Z " fill="#FED9E0" transform="translate(22,26)"/>
<path d="M0 0 C0.33 0.66 0.66 1.32 1 2 C-1.64 1.67 -4.28 1.34 -7 1 C-7 0.34 -7 -0.32 -7 -1 C-11.95 -1 -16.9 -1 -22 -1 C-22 -1.33 -22 -1.66 -22 -2 C-13.68428409 -3.66314318 -7.66573815 -3.49665249 0 0 Z " fill="#E6838D" transform="translate(41,16)"/>
<path d="M0 0 C0.99 0.33 1.98 0.66 3 1 C3 3.31 3 5.62 3 8 C1.68 8 0.36 8 -1 8 C-1.04241723 5.66705225 -1.04092937 3.33297433 -1 1 C-0.67 0.67 -0.34 0.34 0 0 Z " fill="#D34F5E" transform="translate(26,32)"/>
<path d="M0 0 C1.4318457 2.27410787 2.00886042 3.66330414 1.9375 6.375 C0.64152428 10.00373203 -1.41574095 12.15068874 -4 15 C-4.33 14.01 -4.66 13.02 -5 12 C-4.34 12 -3.68 12 -3 12 C-2.67 10.68 -2.34 9.36 -2 8 C-1.34 8 -0.68 8 0 8 C0 5.36 0 2.72 0 0 Z " fill="#DA5165" transform="translate(45,36)"/>
<path d="M0 0 C3.68754757 0.49831724 5.60490662 1.10067643 8 4 C5.36 3.67 2.72 3.34 0 3 C0 2.01 0 1.02 0 0 Z " fill="#E76B7B" transform="translate(34,14)"/>
</svg>
